<?xml version="1.0" standalone="no"?>
<!DOCTYPE svg PUBLIC "-//W3C//DTD SVG 20010904//EN"
 "http://www.w3.org/TR/2001/REC-SVG-20010904/DTD/svg10.dtd">
<svg version="1.0" xmlns="http://www.w3.org/2000/svg"
 width="512.000000pt" height="512.000000pt" viewBox="0 0 512.000000 512.000000"
 preserveAspectRatio="xMidYMid meet">
<metadata>
Created by potrace 1.11, written by Peter Selinger 2001-2013
</metadata>
<g transform="translate(0.000000,512.000000) scale(0.100000,-0.100000)"
fill="#000000" stroke="none">
<path d="M2245 3974 c-54 -7 -160 -32 -235 -54 -74 -23 -171 -52 -215 -65 -84
-26 -209 -94 -503 -278 -301 -188 -438 -305 -666 -567 -181 -207 -242 -326
-296 -574 -16 -72 -37 -160 -46 -196 -10 -38 -17 -108 -18 -170 -1 -99 1 -109
31 -173 18 -37 47 -88 65 -114 42 -57 162 -146 222 -163 l46 -13 0 -46 c1
-185 69 -368 158 -423 l37 -23 905 -6 c841 -5 1900 6 2696 29 l271 7 59 30
c51 27 63 38 89 90 29 57 30 63 30 194 0 152 -15 244 -76 499 -75 309 -136
479 -252 707 -43 84 -68 118 -156 210 -213 223 -199 205 -176 217 46 26 85 76
85 109 0 34 -40 182 -70 260 -28 72 -83 152 -131 191 -62 49 -200 135 -255
159 -167 71 -608 154 -898 169 -254 13 -583 10 -701 -6z m721 -169 c479 -46
783 -127 946 -252 132 -100 208 -184 208 -229 0 -21 -51 -74 -71 -74 -6 0 -31
14 -55 31 -131 90 -390 188 -699 264 -267 66 -352 78 -560 77 -355 0 -705 -82
-1003 -234 -264 -133 -405 -252 -582 -489 -219 -294 -389 -631 -465 -924 -18
-71 -39 -131 -45 -133 -17 -6 -95 26 -113 46 -26 28 -60 170 -61 247 0 60 10
98 66 265 86 251 98 280 165 370 202 270 364 417 741 673 198 136 516 282 676
312 335 63 571 77 852 50z m-154 -445 c470 -34 893 -221 1222 -539 277 -269
426 -536 530 -950 53 -212 70 -426 37 -479 -11 -18 -3602 -32 -3624 -13 -8 6
-23 37 -33 69 -26 79 -26 301 -1 422 57 266 203 586 368 810 85 115 264 291
379 372 245 173 559 285 864 307 61 5 113 9 116 9 3 1 67 -3 142 -8z"/>
</g>
</svg>
